<svg xmlns="http://www.w3.org/2000/svg" width="30.849" height="30.849" viewBox="0 0 30.849 30.849">
  <path id="Icon_metro-plus" data-name="Icon metro-plus" d="M32.455,13.5h-10.6V2.892a.964.964,0,0,0-.964-.964H15.1a.964.964,0,0,0-.964.964V13.5H3.535a.964.964,0,0,0-.964.964v5.784a.964.964,0,0,0,.964.964h10.6v10.6a.964.964,0,0,0,.964.964h5.784a.964.964,0,0,0,.964-.964v-10.6h10.6a.964.964,0,0,0,.964-.964V14.46A.964.964,0,0,0,32.455,13.5Z" transform="translate(-2.571 -1.928)" fill="#015cb5"/>
</svg>
